<mxfile host="app.diagrams.net" modified="2023-12-10T22:07:12.712Z" agent="Mozilla/5.0 (Windows NT 10.0; Win64; x64) AppleWebKit/537.36 (KHTML, like Gecko) Chrome/116.0.5845.664 YaBrowser/23.9.5.664 Yowser/2.5 Safari/537.36" version="22.1.7" etag="Y_c-BVR6Qu-87I-FLh7g" type="github">
  <diagram name="Страница — 1" id="GITG6KaaEALcAAjc-6oA">
    <mxGraphModel>
      <root>
        <mxCell id="0" />
        <mxCell id="1" parent="0" />
      </root>
    </mxGraphModel>
  </diagram>
</mxfile>
